<svg xmlns="http://www.w3.org/2000/svg" viewBox="0 0 28 28" fill="currentColor" aria-hidden="true" class="h-6 w-6 text-black">
  <rect x="0" y="0" width="28" height="28" fill="white" rx="6"></rect>
  <path d="M4.25 4.25a.75.75 0 000 1.5h1.386c.17 0 .318.114.362.278l2.558 9.592a3.752 3.752 0 00-2.806 3.63c0 .414.336.75.75.75h15.75a.75.75 0 000-1.5H7.378A2.25 2.25 0 019.5 17h11.218a.75.75 0 00.674-.421 60.358 60.358 0 002.96-7.228.75.75 0 00-.525-.965A60.864 60.864 0 007.68 6.509l-.232-.867A1.875 1.875 0 005.636 4.25H4.25zM5.75 22.25a1.5 1.5 0 113 0 1.5 1.5 0 01-3 0zM18.5 22.25a1.5 1.5 0 113 0 1.5 1.5 0 01-3 0z"></path>
</svg>
